<svg width="110" height="110" viewBox="0 0 110 110" fill="none" xmlns="http://www.w3.org/2000/svg">
<circle opacity="0.3" cx="55" cy="55" r="55" fill="#9FBFE6"/>
<g clip-path="url(#clip0_255_183)">
<path fill-rule="evenodd" clip-rule="evenodd" d="M44.2468 38.4515H41.6466C40.2674 38.4515 38.9447 38.9994 37.9695 39.9747C36.9942 40.9499 36.4463 42.2726 36.4463 43.6519V70.9535C36.4463 72.3328 36.9942 73.6555 37.9695 74.6307C38.9447 75.606 40.2674 76.1539 41.6466 76.1539H67.6482C69.0275 76.1539 70.3502 75.606 71.3254 74.6307C72.3007 73.6555 72.8486 72.3328 72.8486 70.9535V43.6519C72.8486 42.2726 72.3007 40.9499 71.3254 39.9747C70.3502 38.9994 69.0275 38.4515 67.6482 38.4515H65.0481V41.0517H67.6482C68.3378 41.0517 68.9992 41.3256 69.4868 41.8133C69.9745 42.3009 70.2484 42.9623 70.2484 43.6519V70.9535C70.2484 71.6431 69.9745 72.3045 69.4868 72.7921C68.9992 73.2798 68.3378 73.5537 67.6482 73.5537H41.6466C40.957 73.5537 40.2957 73.2798 39.808 72.7921C39.3204 72.3045 39.0465 71.6431 39.0465 70.9535V43.6519C39.0465 42.9623 39.3204 42.3009 39.808 41.8133C40.2957 41.3256 40.957 41.0517 41.6466 41.0517H44.2468V38.4515Z" fill="#034AAB"/>
<path fill-rule="evenodd" clip-rule="evenodd" d="M58.5477 37.1514H50.7472C50.4024 37.1514 50.0717 37.2884 49.8279 37.5322C49.5841 37.776 49.4471 38.1067 49.4471 38.4515V41.0517C49.4471 41.3965 49.5841 41.7272 49.8279 41.971C50.0717 42.2148 50.4024 42.3518 50.7472 42.3518H58.5477C58.8925 42.3518 59.2232 42.2148 59.467 41.971C59.7108 41.7272 59.8478 41.3965 59.8478 41.0517V38.4515C59.8478 38.1067 59.7108 37.776 59.467 37.5322C59.2232 37.2884 58.8925 37.1514 58.5477 37.1514ZM50.7472 34.5513C49.7128 34.5513 48.7207 34.9622 47.9893 35.6936C47.2579 36.4251 46.847 37.4171 46.847 38.4515V41.0517C46.847 42.0861 47.2579 43.0781 47.9893 43.8096C48.7207 44.541 49.7128 44.9519 50.7472 44.9519H58.5477C59.5821 44.9519 60.5741 44.541 61.3056 43.8096C62.037 43.0781 62.4479 42.0861 62.4479 41.0517V38.4515C62.4479 37.4171 62.037 36.4251 61.3056 35.6936C60.5741 34.9622 59.5821 34.5513 58.5477 34.5513H50.7472Z" fill="#034AAB"/>
<path d="M44.2468 63.153C44.2468 62.4634 44.5207 61.8021 45.0084 61.3144C45.496 60.8268 46.1574 60.5529 46.847 60.5529C47.5366 60.5529 48.1979 60.8268 48.6855 61.3144C49.1732 61.8021 49.4471 62.4634 49.4471 63.153V65.7532C49.4471 66.4428 49.1732 67.1041 48.6855 67.5918C48.1979 68.0794 47.5366 68.3533 46.847 68.3533C46.1574 68.3533 45.496 68.0794 45.0084 67.5918C44.5207 67.1041 44.2468 66.4428 44.2468 65.7532V63.153ZM59.8478 52.7524C59.8478 52.0628 60.1217 51.4014 60.6093 50.9138C61.097 50.4262 61.7583 50.1522 62.4479 50.1522C63.1375 50.1522 63.7989 50.4262 64.2865 50.9138C64.7741 51.4014 65.0481 52.0628 65.0481 52.7524V65.7532C65.0481 66.4428 64.7741 67.1041 64.2865 67.5918C63.7989 68.0794 63.1375 68.3533 62.4479 68.3533C61.7583 68.3533 61.097 68.0794 60.6093 67.5918C60.1217 67.1041 59.8478 66.4428 59.8478 65.7532V52.7524ZM52.0473 57.9527C52.0473 57.2631 52.3212 56.6017 52.8088 56.1141C53.2965 55.6265 53.9578 55.3525 54.6474 55.3525C55.337 55.3525 55.9984 55.6265 56.486 56.1141C56.9737 56.6017 57.2476 57.2631 57.2476 57.9527V65.7532C57.2476 66.4428 56.9737 67.1041 56.486 67.5918C55.9984 68.0794 55.337 68.3533 54.6474 68.3533C53.9578 68.3533 53.2965 68.0794 52.8088 67.5918C52.3212 67.1041 52.0473 66.4428 52.0473 65.7532V57.9527Z" fill="#034AAB"/>
</g>
<defs>
<clipPath id="clip0_255_183">
<rect width="41.6026" height="41.6026" fill="white" transform="translate(33.8462 34.5513)"/>
</clipPath>
</defs>
</svg>
