<svg width="49" height="50" viewBox="0 0 49 50" fill="none" xmlns="http://www.w3.org/2000/svg">
<path d="M17.8405 34.0388C17.139 33.3429 17.5047 33.5391 15.8126 33.0899C15.0449 32.8857 14.37 32.4933 13.7597 32.0233L10.097 40.931C9.74264 41.7934 10.4046 42.7303 11.3427 42.6951L15.5962 42.5341L18.5218 45.5994C19.1677 46.2753 20.3011 46.0647 20.6555 45.2023L24.8574 34.9829C23.9823 35.4666 23.0111 35.75 22.0069 35.75C20.4327 35.75 18.9537 35.1423 17.8405 34.0388ZM40.903 40.931L37.2403 32.0233C36.63 32.4941 35.9551 32.8857 35.1874 33.0899C33.4865 33.5415 33.8594 33.3445 33.1595 34.0388C32.0463 35.1423 30.5665 35.75 28.9923 35.75C27.988 35.75 27.0169 35.4658 26.1418 34.9829L30.3437 45.2023C30.6981 46.0647 31.8323 46.2753 32.4774 45.5994L35.4038 42.5341L39.6573 42.6951C40.5954 42.7303 41.2574 41.7926 40.903 40.931ZM31.2317 32.2267C32.4652 30.9815 32.6065 31.0888 34.3632 30.6139C35.4845 30.3104 36.3612 29.4256 36.6615 28.2933C37.2654 26.0191 37.1087 26.2938 38.7564 24.6298C39.5774 23.801 39.8979 22.5927 39.5976 21.4604C38.9946 19.1878 38.9937 19.5049 39.5976 17.2299C39.8979 16.0977 39.5774 14.8893 38.7564 14.0605C37.1087 12.3965 37.2654 12.6704 36.6615 10.397C36.3612 9.26472 35.4845 8.37988 34.3632 8.07639C32.1125 7.467 32.3837 7.62635 30.7344 5.96156C29.9134 5.13277 28.7162 4.80846 27.5949 5.11195C25.345 5.72053 25.659 5.72133 23.4051 5.11195C22.2838 4.80846 21.0866 5.13197 20.2656 5.96156C18.6179 7.62555 18.8892 7.467 16.6376 8.07639C15.5163 8.37988 14.6396 9.26472 14.3393 10.397C13.7363 12.6704 13.8921 12.3965 12.2444 14.0605C11.4234 14.8893 11.1021 16.0977 11.4032 17.2299C12.0063 19.5009 12.0071 19.1838 11.4032 21.4596C11.1029 22.5919 11.4234 23.8002 12.2444 24.6298C13.8921 26.2938 13.7355 26.0191 14.3393 28.2933C14.6396 29.4256 15.5163 30.3104 16.6376 30.6139C18.4443 31.1024 18.5792 31.0255 19.7683 32.2267C20.8363 33.3053 22.5001 33.4983 23.7837 32.6927C24.297 32.3695 24.8924 32.1978 25.5004 32.1978C26.1084 32.1978 26.7038 32.3695 27.2171 32.6927C28.4999 33.4983 30.1637 33.3053 31.2317 32.2267ZM17.8841 19.0909C17.8841 14.8445 21.2941 11.402 25.5 11.402C29.7059 11.402 33.1159 14.8445 33.1159 19.0909C33.1159 23.3374 29.7059 26.7799 25.5 26.7799C21.2941 26.7799 17.8841 23.3374 17.8841 19.0909Z" fill="#0054BE"/>
</svg>
