<svg width="65" height="65" viewBox="0 0 65 65" fill="none" xmlns="http://www.w3.org/2000/svg">
<rect width="65" height="65" rx="32.5" fill="#FFE2BF"/>
<g clip-path="url(#clip0_264_148)">
<path d="M37.2526 18.2318C37.2526 17.5521 37.9245 17 38.7552 17C39.5859 17 40.2578 17.5521 40.2578 18.2318V23.6276C40.2578 24.3073 39.5859 24.8594 38.7552 24.8594C37.9245 24.8594 37.2526 24.3073 37.2526 23.6276V18.2318ZM23.7109 18.2318C23.7109 17.5521 24.3828 17 25.2135 17C26.0443 17 26.7161 17.5521 26.7161 18.2318V23.6276C26.7161 24.3073 26.0443 24.8594 25.2135 24.8594C24.3828 24.8594 23.7109 24.3073 23.7109 23.6276V18.2318ZM26.6745 39.0208C26.3438 38.7031 26.3333 38.1771 26.651 37.8464C26.9687 37.5156 27.4948 37.5052 27.8255 37.8229L30.4036 40.3151L36.138 34.1745C36.4505 33.8385 36.9766 33.8203 37.3125 34.1328C37.6484 34.4453 37.6667 34.9714 37.3542 35.3073L31.0443 42.0677L31.0339 42.0781C30.7161 42.4089 30.1901 42.4193 29.8594 42.1016L26.6745 39.0208ZM17.6667 28.8021H46.3333V22.5911C46.3333 22.3828 46.2474 22.1927 46.1094 22.0521C45.9714 21.9141 45.7812 21.8281 45.5703 21.8281H42.8229C42.362 21.8281 41.9896 21.4557 41.9896 20.9948C41.9896 20.5339 42.362 20.1615 42.8229 20.1615H45.5703C46.2396 20.1615 46.8464 20.4349 47.2865 20.875C47.7266 21.3151 48 21.9219 48 22.5911V29.638V46.5729C48 47.2422 47.7266 47.849 47.2865 48.2891C46.8464 48.7292 46.2396 49.0026 45.5703 49.0026H18.4297C17.7604 49.0026 17.1536 48.7292 16.7135 48.2891C16.2734 47.8464 16 47.2396 16 46.5703V29.638V22.5911C16 21.9219 16.2734 21.3151 16.7135 20.875C17.1536 20.4349 17.7604 20.1615 18.4297 20.1615H21.3646C21.8255 20.1615 22.1979 20.5339 22.1979 20.9948C22.1979 21.4557 21.8255 21.8281 21.3646 21.8281H18.4297C18.2214 21.8281 18.0312 21.9141 17.8906 22.0521C17.7526 22.1901 17.6667 22.3802 17.6667 22.5911V28.8021ZM46.3333 30.4714H17.6667V46.5703C17.6667 46.7786 17.7526 46.9687 17.8906 47.1094C18.0286 47.2474 18.2187 47.3333 18.4297 47.3333H45.5703C45.7786 47.3333 45.9687 47.2474 46.1094 47.1094C46.2474 46.9714 46.3333 46.7812 46.3333 46.5703V30.4714ZM29.1328 21.8281C28.6719 21.8281 28.2995 21.4557 28.2995 20.9948C28.2995 20.5339 28.6719 20.1615 29.1328 20.1615H34.7292C35.1901 20.1615 35.5625 20.5339 35.5625 20.9948C35.5625 21.4557 35.1901 21.8281 34.7292 21.8281H29.1328Z" fill="#050505"/>
</g>
<defs>
<clipPath id="clip0_264_148">
<rect width="32" height="32" fill="white" transform="translate(16 17)"/>
</clipPath>
</defs>
</svg>
