<svg width="49" height="48" viewBox="0 0 49 48" fill="none" xmlns="http://www.w3.org/2000/svg">
<g clip-path="url(#clip0_22_354)">
<path d="M40 48V43.6667C40 41.3681 39.1571 39.1637 37.6569 37.5384C36.1566 35.9131 34.1217 35 32 35H30C29.4696 35 28.9609 34.7717 28.5858 34.3654C28.2107 33.9591 28 33.408 28 32.8333V22C28 20.8507 27.5786 19.7485 26.8284 18.9359C26.0783 18.1232 25.0609 17.6667 24 17.6667V17.6667C22.9391 17.6667 21.9217 18.1232 21.1716 18.9359C20.4214 19.7485 20 20.8507 20 22V41.5L15.2 34.5667C14.8274 34.0285 14.3443 33.5917 13.7889 33.2908C13.2334 32.99 12.621 32.8333 12 32.8333H11.132C9.402 32.8333 8 34.3522 8 36.2263C8 36.8417 8.154 37.4462 8.446 37.9727L14 48M24 11.1667V9ZM36 24.1667H38ZM10 24.1667H12ZM14.686 14.0765L13.272 12.5447ZM33.314 14.0765L34.728 12.5447Z" fill="#0054BE"/>
<path d="M40 48V43.6667C40 41.3681 39.1571 39.1637 37.6569 37.5384C36.1566 35.9131 34.1217 35 32 35H30C29.4696 35 28.9609 34.7717 28.5858 34.3654C28.2107 33.9591 28 33.408 28 32.8333V22C28 20.8507 27.5786 19.7485 26.8284 18.9359C26.0783 18.1232 25.0609 17.6667 24 17.6667V17.6667C22.9391 17.6667 21.9217 18.1232 21.1716 18.9359C20.4214 19.7485 20 20.8507 20 22V41.5L15.2 34.5667C14.8274 34.0285 14.3443 33.5917 13.7889 33.2908C13.2334 32.99 12.621 32.8333 12 32.8333H11.132C9.402 32.8333 8 34.3522 8 36.2263C8 36.8417 8.154 37.4462 8.446 37.9727L14 48M24 11.1667V9M36 24.1667H38M10 24.1667H12M14.686 14.0765L13.272 12.5447M33.314 14.0765L34.728 12.5447" stroke="#0054BE" stroke-width="2" stroke-linecap="round" stroke-linejoin="round"/>
</g>
<defs>
<clipPath id="clip0_22_354">
<rect width="48" height="48" fill="white" transform="translate(0.5)"/>
</clipPath>
</defs>
</svg>
