<svg width="110" height="110" viewBox="0 0 110 110" fill="none" xmlns="http://www.w3.org/2000/svg">
<circle opacity="0.3" cx="55" cy="55" r="55" fill="#9FBFE6"/>
<g clip-path="url(#clip0_264_121)">
<path d="M76.875 34.35C76.2733 33.9607 75.5852 33.7252 74.8712 33.6642C74.1571 33.6032 73.439 33.7185 72.78 34L51.185 42.505C50.6737 42.7131 50.127 42.82 49.575 42.82H35.75C34.5897 42.82 33.4769 43.2809 32.6564 44.1014C31.8359 44.9219 31.375 46.0347 31.375 47.195V47.545H27V58.045H31.375V58.5C31.4024 59.642 31.8754 60.728 32.6929 61.5259C33.5105 62.3238 34.6076 62.7703 35.75 62.77L41 73.9C41.3555 74.6495 41.9152 75.2835 42.6148 75.7293C43.3144 76.175 44.1255 76.4144 44.955 76.42H47.16C48.3142 76.4108 49.4181 75.9458 50.231 75.1263C51.0439 74.3068 51.5 73.1993 51.5 72.045V63.19L72.78 71.695C73.3034 71.9033 73.8617 72.0102 74.425 72.01C75.299 71.9959 76.1501 71.7284 76.875 71.24C77.4507 70.8513 77.9255 70.3311 78.2603 69.7225C78.595 69.1139 78.78 68.4343 78.8 67.74V37.955C78.7968 37.2428 78.6198 36.5422 78.2843 35.9139C77.9488 35.2857 77.4651 34.7488 76.875 34.35ZM47.125 47.195V58.5H35.75V47.195H47.125ZM47.125 72.045H44.92L40.615 62.77H47.125V72.045ZM52.795 59.025C52.3794 58.8126 51.9461 58.637 51.5 58.5V46.95C51.9419 46.8588 52.3751 46.73 52.795 46.565L74.425 37.955V67.635L52.795 59.025ZM78.905 48.42V57.17C80.0653 57.17 81.1781 56.7091 81.9986 55.8886C82.8191 55.0681 83.28 53.9553 83.28 52.795C83.28 51.6347 82.8191 50.5219 81.9986 49.7014C81.1781 48.8809 80.0653 48.42 78.905 48.42Z" fill="#024EB1" stroke="#024EB1" stroke-width="0.00064"/>
</g>
<defs>
<clipPath id="clip0_264_121">
<rect width="56" height="56" fill="white" transform="translate(27 27)"/>
</clipPath>
</defs>
</svg>
