<svg width="49" height="48" viewBox="0 0 49 48" fill="none" xmlns="http://www.w3.org/2000/svg">
<path d="M6 16.5V17H6.5H42.5H43V16.5V14.25C43 13.1228 42.5522 12.0418 41.7552 11.2448C40.9582 10.4478 39.8772 10 38.75 10H10.25C9.12283 10 8.04183 10.4478 7.2448 11.2448C6.44777 12.0418 6 13.1228 6 14.25V16.5ZM43 19.5V19H42.5H6.5H6V19.5V33.75C6 34.8772 6.44777 35.9582 7.2448 36.7552C8.04183 37.5522 9.12283 38 10.25 38H38.75C39.8772 38 40.9582 37.5522 41.7552 36.7552C42.5522 35.9582 43 34.8772 43 33.75V19.5ZM4 14.25C4 12.5924 4.65848 11.0027 5.83058 9.83058C7.00268 8.65848 8.5924 8 10.25 8H38.75C40.4076 8 41.9973 8.65848 43.1694 9.83058C44.3415 11.0027 45 12.5924 45 14.25V33.75C45 35.4076 44.3415 36.9973 43.1694 38.1694C41.9973 39.3415 40.4076 40 38.75 40H10.25C8.5924 40 7.00268 39.3415 5.83058 38.1694C4.65848 36.9973 4 35.4076 4 33.75V14.25ZM32 29H36.5C36.7652 29 37.0196 29.1054 37.2071 29.2929C37.3946 29.4804 37.5 29.7348 37.5 30C37.5 30.2652 37.3946 30.5196 37.2071 30.7071C37.0196 30.8946 36.7652 31 36.5 31H32C31.7348 31 31.4804 30.8946 31.2929 30.7071C31.1054 30.5196 31 30.2652 31 30C31 29.7348 31.1054 29.4804 31.2929 29.2929C31.4804 29.1054 31.7348 29 32 29Z" fill="#0054BE" stroke="#0054BE"/>
</svg>
