<svg width="110" height="110" viewBox="0 0 110 110" fill="none" xmlns="http://www.w3.org/2000/svg">
<path opacity="0.3" d="M110 55C110 85.3757 85.3757 110 55 110C24.6243 110 0 85.3757 0 55C0 24.6243 24.6243 0 55 0C85.3757 0 110 24.6243 110 55Z" fill="#9FBFE6"/>
<path d="M74.25 49.4C76.0159 50.4169 77.4478 51.9257 78.371 53.7424C79.2942 55.5591 79.6688 57.6051 79.4491 59.6311C79.2295 61.657 78.4251 63.5752 77.1339 65.1518C75.8428 66.7284 74.1209 67.8953 72.178 68.51C71.4913 71.6261 69.7611 74.4143 67.2737 76.4129C64.7862 78.4115 61.6909 79.5006 58.5 79.5H53.25C52.7859 79.5 52.3408 79.3157 52.0126 78.9875C51.6844 78.6593 51.5 78.2142 51.5 77.75C51.5 77.2859 51.6844 76.8408 52.0126 76.5126C52.3408 76.1844 52.7859 76 53.25 76H58.5C60.6722 76.0007 62.7911 75.3278 64.565 74.0742C66.3389 72.8206 67.6805 71.0478 68.405 69H67.25C66.7859 69 66.3408 68.8157 66.0126 68.4875C65.6844 68.1593 65.5 67.7142 65.5 67.25V49.75C65.5 49.2859 65.6844 48.8408 66.0126 48.5126C66.3408 48.1844 66.7859 48 67.25 48H69C69.567 48 70.1235 48.0455 70.6695 48.133C70.2755 44.2511 68.4546 40.6537 65.5597 38.0377C62.6647 35.4217 58.9018 33.9734 55 33.9734C51.0982 33.9734 47.3353 35.4217 44.4403 38.0377C41.5454 40.6537 39.7245 44.2511 39.3305 48.133C39.8826 48.0446 40.4409 48.0001 41 48H42.75C43.2141 48 43.6593 48.1844 43.9874 48.5126C44.3156 48.8408 44.5 49.2859 44.5 49.75V67.25C44.5 67.7142 44.3156 68.1593 43.9874 68.4875C43.6593 68.8157 43.2141 69 42.75 69H41C38.6864 69.0026 36.4368 68.241 34.6006 66.8335C32.7644 65.4261 31.4445 63.4515 30.8459 61.2168C30.2473 58.982 30.4035 56.6121 31.2903 54.4752C32.1772 52.3384 33.7449 50.5542 35.75 49.4C35.75 44.2946 37.7781 39.3983 41.3882 35.7882C44.9983 32.1781 49.8946 30.15 55 30.15C60.1054 30.15 65.0017 32.1781 68.6118 35.7882C72.2219 39.3983 74.25 44.2946 74.25 49.4ZM41 51.5C39.1435 51.5 37.363 52.2375 36.0503 53.5503C34.7375 54.863 34 56.6435 34 58.5C34 60.3565 34.7375 62.137 36.0503 63.4498C37.363 64.7625 39.1435 65.5 41 65.5V51.5ZM76 58.5C76 56.6435 75.2625 54.863 73.9498 53.5503C72.637 52.2375 70.8565 51.5 69 51.5V65.5C70.8565 65.5 72.637 64.7625 73.9498 63.4498C75.2625 62.137 76 60.3565 76 58.5Z" fill="#024EB1"/>
</svg>
