<svg width="110" height="110" viewBox="0 0 110 110" fill="none" xmlns="http://www.w3.org/2000/svg">
<circle opacity="0.3" cx="55" cy="55" r="55" fill="#9FBFE6"/>
<g clip-path="url(#clip0_9_38)">
<path d="M44.9519 34.5513H59.2528V37.1514H44.9519C44.2623 37.1514 43.6009 37.4254 43.1133 37.913C42.6257 38.4006 42.3517 39.062 42.3517 39.7516V70.9535C42.3517 71.6431 42.6257 72.3045 43.1133 72.7921C43.6009 73.2797 44.2623 73.5537 44.9519 73.5537H65.7532C66.4428 73.5537 67.1042 73.2797 67.5918 72.7921C68.0794 72.3045 68.3534 71.6431 68.3534 70.9535V46.252H70.9535V70.9535C70.9535 72.3327 70.4056 73.6554 69.4304 74.6307C68.4551 75.6059 67.1324 76.1538 65.7532 76.1538H44.9519C43.5727 76.1538 42.25 75.6059 41.2747 74.6307C40.2995 73.6554 39.7516 72.3327 39.7516 70.9535V39.7516C39.7516 38.3724 40.2995 37.0497 41.2747 36.0744C42.25 35.0992 43.5727 34.5513 44.9519 34.5513V34.5513Z" fill="#034AAB"/>
<path d="M59.2528 42.3518V34.5513L70.9535 46.252H63.153C62.1186 46.252 61.1266 45.8411 60.3952 45.1096C59.6637 44.3782 59.2528 43.3862 59.2528 42.3518Z" fill="#034AAB"/>
<path fill-rule="evenodd" clip-rule="evenodd" d="M52.7524 47.5521C53.0972 47.5521 53.4279 47.689 53.6717 47.9328C53.9155 48.1767 54.0525 48.5073 54.0525 48.8521V50.5006L55.48 49.6764C55.6279 49.5897 55.7915 49.5331 55.9613 49.5099C56.1312 49.4866 56.304 49.4972 56.4698 49.5411C56.6355 49.5849 56.791 49.6611 56.9272 49.7652C57.0634 49.8694 57.1776 49.9994 57.2634 50.1479C57.3491 50.2964 57.4046 50.4604 57.4267 50.6304C57.4488 50.8004 57.437 50.9731 57.3921 51.1386C57.3472 51.304 57.27 51.459 57.1649 51.5945C57.0599 51.73 56.9291 51.8434 56.78 51.9281L55.3525 52.7524L56.78 53.5766C56.9291 53.6614 57.0599 53.7748 57.1649 53.9103C57.27 54.0458 57.3472 54.2007 57.3921 54.3662C57.437 54.5316 57.4488 54.7044 57.4267 54.8744C57.4046 55.0444 57.3491 55.2084 57.2634 55.3569C57.1776 55.5054 57.0634 55.6354 56.9272 55.7396C56.791 55.8437 56.6355 55.9199 56.4698 55.9637C56.304 56.0075 56.1312 56.0181 55.9613 55.9949C55.7915 55.9717 55.6279 55.9151 55.48 55.8284L54.0525 55.0041V56.6526C54.0525 56.9974 53.9155 57.3281 53.6717 57.5719C53.4279 57.8157 53.0972 57.9527 52.7524 57.9527C52.4076 57.9527 52.0769 57.8157 51.8331 57.5719C51.5893 57.3281 51.4523 56.9974 51.4523 56.6526V55.0041L50.0248 55.8284C49.8769 55.9151 49.7133 55.9717 49.5434 55.9949C49.3736 56.0181 49.2008 56.0075 49.035 55.9637C48.8692 55.9199 48.7138 55.8437 48.5776 55.7396C48.4414 55.6354 48.3271 55.5054 48.2414 55.3569C48.1557 55.2084 48.1002 55.0444 48.0781 54.8744C48.056 54.7044 48.0677 54.5316 48.1126 54.3662C48.1576 54.2007 48.2348 54.0458 48.3398 53.9103C48.4449 53.7748 48.5757 53.6614 48.7247 53.5766L50.1522 52.7524L48.7247 51.9281C48.4286 51.7545 48.2131 51.4708 48.1253 51.1389C48.0376 50.807 48.0847 50.4538 48.2563 50.1565C48.428 49.8592 48.7103 49.6419 49.0416 49.5519C49.3729 49.462 49.7264 49.5067 50.0248 49.6764L51.4523 50.5006V48.8521C51.4523 48.5073 51.5893 48.1767 51.8331 47.9328C52.0769 47.689 52.4076 47.5521 52.7524 47.5521ZM47.5521 61.8529C47.5521 61.5081 47.689 61.1775 47.9328 60.9336C48.1767 60.6898 48.5073 60.5529 48.8521 60.5529H61.8529C62.1977 60.5529 62.5284 60.6898 62.7722 60.9336C63.0161 61.1775 63.153 61.5081 63.153 61.8529C63.153 62.1977 63.0161 62.5284 62.7722 62.7722C62.5284 63.0161 62.1977 63.153 61.8529 63.153H48.8521C48.5073 63.153 48.1767 63.0161 47.9328 62.7722C47.689 62.5284 47.5521 62.1977 47.5521 61.8529ZM47.5521 67.0533C47.5521 66.7085 47.689 66.3778 47.9328 66.134C48.1767 65.8902 48.5073 65.7532 48.8521 65.7532H61.8529C62.1977 65.7532 62.5284 65.8902 62.7722 66.134C63.0161 66.3778 63.153 66.7085 63.153 67.0533C63.153 67.3981 63.0161 67.7288 62.7722 67.9726C62.5284 68.2164 62.1977 68.3533 61.8529 68.3533H48.8521C48.5073 68.3533 48.1767 68.2164 47.9328 67.9726C47.689 67.7288 47.5521 67.3981 47.5521 67.0533Z" fill="#034AAB"/>
</g>
<defs>
<clipPath id="clip0_9_38">
<rect width="41.6026" height="41.6026" fill="white" transform="translate(34.5513 34.5513)"/>
</clipPath>
</defs>
</svg>
